<?xml version="1.0" encoding="iso-8859-1"?>
<!-- Generator: Adobe Illustrator 19.0.0, SVG Export Plug-In . SVG Version: 6.00 Build 0)  -->
<svg version="1.1" id="Layer_1" xmlns="http://www.w3.org/2000/svg" xmlns:xlink="http://www.w3.org/1999/xlink" x="0px" y="0px"
	 viewBox="0 0 512 512" style="enable-background:new 0 0 512 512;" xml:space="preserve">
<g>
	<path style="fill:#B3404A;" d="M60.76,139.885c-7.812,0-14.144-6.332-14.144-14.144V60.76c0-7.812,6.332-14.144,14.144-14.144
		h64.98c7.812,0,14.144,6.332,14.144,14.144s-6.332,14.144-14.144,14.144H74.903v50.837
		C74.903,133.553,68.571,139.885,60.76,139.885z"/>
	<path style="fill:#B3404A;" d="M451.24,465.384h-64.98c-7.812,0-14.144-6.332-14.144-14.144s6.332-14.144,14.144-14.144h50.836
		V386.26c0-7.812,6.332-14.144,14.144-14.144s14.144,6.332,14.144,14.144v64.98C465.384,459.05,459.05,465.384,451.24,465.384z"/>
	<path style="fill:#B3404A;" d="M497.856,512H14.144C6.332,512,0,505.668,0,497.856V14.144C0,6.332,6.332,0,14.144,0h483.713
		C505.668,0,512,6.332,512,14.144v483.713C512,505.668,505.668,512,497.856,512z M28.287,483.713h455.425V28.287H28.287V483.713z"/>
	<path style="fill:#B3404A;" d="M213.924,353.696c-7.812,0-14.144-6.332-14.144-14.144V186.348c0-7.812,6.332-14.144,14.144-14.144
		c7.812,0,14.144,6.332,14.144,14.144v153.204C228.068,347.364,221.736,353.696,213.924,353.696z"/>
	<path style="fill:#B3404A;" d="M167.505,353.696c-7.812,0-14.144-6.332-14.144-14.144V200.301c0-7.812,6.332-14.144,14.144-14.144
		s14.144,6.332,14.144,14.144v139.251C181.648,347.364,175.316,353.696,167.505,353.696z"/>
	<path style="fill:#B3404A;" d="M121.085,353.696c-7.812,0-14.144-6.332-14.144-14.144V207.22c0-7.812,6.332-14.144,14.144-14.144
		s14.144,6.332,14.144,14.144v132.332C135.229,347.364,128.897,353.696,121.085,353.696z"/>
	<path style="fill:#B3404A;" d="M74.666,335.057c-7.812,0-14.144-6.332-14.144-14.144v-64.936c0-7.812,6.332-14.144,14.144-14.144
		s14.144,6.332,14.144,14.144v64.936C88.809,328.725,82.476,335.057,74.666,335.057z"/>
</g>
<path style="fill:#F4B2B0;" d="M437.336,296.068c0-21.899-16.721-38.862-40.656-41.239c-6.058-0.618-8.809-1.157-8.809-1.157
	l-5.335-1.018l-0.314-5.44c-2.202-41.926-36.782-74.765-78.699-74.765c-10.603,0-26.429,4.061-37.938,8.611v158.084h42.725
	l91.511,0.409"/>
<path style="fill:#B3404A;" d="M399.824,353.696c-0.023,0-0.042,0-0.065,0l-91.511-0.41h-42.661
	c-7.812,0-14.144-6.332-14.144-14.144V181.058c0-5.805,3.546-11.019,8.944-13.154c11.205-4.428,29.225-9.601,43.137-9.601
	c47.449,0,86.907,35.65,92.321,82.209c0.687,0.079,1.444,0.161,2.27,0.246c30.905,3.066,53.363,26.33,53.363,55.309
	c0,7.812-6.332,14.144-14.144,14.144s-14.144-6.332-14.144-14.144c0-14.591-11.216-25.507-27.908-27.164
	c-6.42-0.655-9.567-1.242-10.133-1.354l-5.266-1.004c-6.367-1.216-11.094-6.607-11.468-13.08l-0.314-5.44
	c-1.812-34.481-30.175-61.436-64.58-61.436c-5.803,0-14.91,1.774-23.794,4.502v133.905h28.582l91.574,0.41
	c7.81,0.035,14.114,6.396,14.08,14.207C413.931,347.405,407.604,353.694,399.824,353.696z"/>
<g>
</g>
<g>
</g>
<g>
</g>
<g>
</g>
<g>
</g>
<g>
</g>
<g>
</g>
<g>
</g>
<g>
</g>
<g>
</g>
<g>
</g>
<g>
</g>
<g>
</g>
<g>
</g>
<g>
</g>
</svg>
